HIERARCHY
ROOT Hips
{
	OFFSET 0.000000 0.000000 0.000000
	CHANNELS 6 Xposition Yposition Zposition Zrotation Yrotation Xrotation 
	JOINT LeftUpLeg_virtual
	{
		OFFSET 0.000000 0.000000 0.000000
		CHANNELS 3 Zrotation Yrotation Xrotation
		JOINT LeftUpLeg
		{
			OFFSET 10.205400 -3.823500 0.155100
			CHANNELS 3 Zrotation Yrotation Xrotation
			JOINT LeftLeg
			{
				OFFSET 0.708757 -12.982077 0.567790
				CHANNELS 3 Zrotation Yrotation Xrotation
				JOINT LeftFoot
				{
					OFFSET -0.708756 -10.717838 -2.184338
					CHANNELS 3 Zrotation Yrotation Xrotation
					JOINT LeftToeBase
					{
						OFFSET 0.108149 -7.191104 7.560241
						CHANNELS 3 Zrotation Yrotation Xrotation
						End Site
						{
							OFFSET 0.000000 0.000000 0.000000
						}
					}
				}
			}
		}
	}
	JOINT RightUpLeg_virtual
	{
		OFFSET 0.000000 0.000000 0.000000
		CHANNELS 3 Zrotation Yrotation Xrotation
		JOINT RightUpLeg
		{
			OFFSET -10.205400 -3.823500 0.005500
			CHANNELS 3 Zrotation Yrotation Xrotation
			JOINT RightLeg
			{
				OFFSET -0.708756 -12.982134 0.610632
				CHANNELS 3 Zrotation Yrotation Xrotation
				JOINT RightFoot
				{
					OFFSET 0.708754 -10.717769 -1.945823
					CHANNELS 3 Zrotation Yrotation Xrotation
					JOINT RightToeBase
					{
						OFFSET -0.108140 -7.191069 7.372968
						CHANNELS 3 Zrotation Yrotation Xrotation
						End Site
						{
							OFFSET 0.000000 0.000000 0.000000
						}
					}
				}
			}
		}
	}
	JOINT Spine_virtual
	{
		OFFSET 0.000000 0.000000 0.000000
		CHANNELS 3 Zrotation Yrotation Xrotation
		JOINT Spine
		{
			OFFSET 0.000000 6.876099 0.125700
			CHANNELS 3 Zrotation Yrotation Xrotation
			JOINT Spine1
			{
				OFFSET 0.000000 8.022060 0.146608
				CHANNELS 3 Zrotation Yrotation Xrotation
				JOINT Spine2
				{
					OFFSET 0.000000 9.168068 0.167552
					CHANNELS 3 Zrotation Yrotation Xrotation
					JOINT Neck_virtual
					{
						OFFSET 0.000000 0.000000 0.000000
						CHANNELS 3 Zrotation Yrotation Xrotation
						JOINT Neck
						{
							OFFSET 0.000000 10.314075 0.188496
							CHANNELS 3 Zrotation Yrotation Xrotation
							JOINT Head
							{
								OFFSET 0.000000 7.643700 -2.377400
								CHANNELS 3 Zrotation Yrotation Xrotation
								End Site
								{
									OFFSET 0.000000 0.000000 0.000000
								}
							}
						}
					}
					JOINT LeftShoulder_virtual
					{
						OFFSET 0.000000 0.000000 0.000000
						CHANNELS 3 Zrotation Yrotation Xrotation
						JOINT LeftShoulder
						{
							OFFSET 4.392200 8.824978 0.174984
							CHANNELS 3 Zrotation Yrotation Xrotation
							JOINT LeftArm
							{
								OFFSET 8.771219 -2.981674 -0.026999
								CHANNELS 3 Zrotation Yrotation Xrotation
								JOINT LeftForeArm
								{
									OFFSET 8.512804 0.000000 -0.000000
									CHANNELS 3 Zrotation Yrotation Xrotation
									JOINT LeftHand
									{
										OFFSET 18.484802 0.000000 -0.000000
										CHANNELS 3 Zrotation Yrotation Xrotation
										End Site
										{
											OFFSET 0.000000 0.000000 0.000000
										}
									}
								}
							}
						}
					}
					JOINT RightShoulder_virtual
					{
						OFFSET 0.000000 0.000000 0.000000
						CHANNELS 3 Zrotation Yrotation Xrotation
						JOINT RightShoulder
						{
							OFFSET -4.392200 8.824993 0.141379
							CHANNELS 3 Zrotation Yrotation Xrotation
							JOINT RightArm
							{
								OFFSET -8.771282 -2.981682 -0.094208
								CHANNELS 3 Zrotation Yrotation Xrotation
								JOINT RightForeArm
								{
									OFFSET -8.494598 0.000000 0.000000
									CHANNELS 3 Zrotation Yrotation Xrotation
									JOINT RightHand
									{
										OFFSET -18.483803 0.000000 0.000001
										CHANNELS 3 Zrotation Yrotation Xrotation
										End Site
										{
											OFFSET 0.000000 0.000000 0.000000
										}
									}
								}
							}
						}
					}
				}
			}
		}
	}
}
MOTION
Frames: 4
Frame Time: 0.033333
5.217936 36.029858 -10.686109 179.998461 -1.853764 179.914887 -0.746074 -4.366736 11.596938 -4.940086 -7.926964 -14.874467 14.298021 4.313492 17.289656 -4.646386 0.319597 5.712138 0.000000 0.000000 0.000000 3.886951 -3.907524 11.623884 -2.112663 8.550399 -15.978114 -3.896432 4.343234 19.058374 13.478067 2.568826 2.036246 0.000000 0.000000 0.000000 3.099509 -0.768549 -2.342370 -1.800239 1.980033 -4.935633 0.208146 -2.319583 5.631427 0.031371 -0.068245 -0.025379 -0.359447 -0.154862 8.681429 1.580545 -2.836723 14.746997 0.000000 0.000000 0.000000 0.963342 0.571776 5.740083 -17.753962 -11.443440 3.840428 -45.855042 14.796720 12.723158 0.252001 -39.719766 -0.560348 0.000000 0.000000 0.000000 -2.670356 1.602630 5.266022 25.061561 0.605154 2.021208 45.965063 -15.090707 15.754955 -1.079663 27.747611 -3.683676 0.000000 0.000000 0.000000 
5.246317 36.025253 -10.665936 179.928069 -1.773573 179.865601 -0.726150 -4.183215 11.401658 -4.629101 -8.627845 -14.839385 14.566005 4.425244 17.068778 -4.262044 0.602010 5.689722 0.000000 0.000000 0.000000 3.926114 -3.971485 11.566895 -1.890860 8.573795 -15.909435 -3.726469 4.002006 18.927313 13.671093 2.819499 1.937437 0.000000 0.000000 0.000000 3.062837 -0.692803 -2.404036 -1.852943 1.815434 -4.935905 0.204937 -2.438031 5.675397 0.005232 -0.005005 -0.017022 -0.325241 -0.216655 8.663710 1.548582 -2.783893 14.750048 0.000000 0.000000 0.000000 1.038803 0.566798 5.693126 -17.745016 -11.531223 3.925921 -45.715057 14.511041 12.830718 0.219293 -39.746647 -0.576492 0.000000 0.000000 0.000000 -2.628970 1.546023 5.298581 25.085354 0.601554 1.892501 45.956436 -15.358495 15.510263 -1.061232 27.812009 -3.677041 0.000000 0.000000 0.000000 
5.275708 36.022243 -10.648839 179.952289 -1.467101 179.878127 -0.713483 -4.190721 11.292523 -4.643041 -8.263190 -14.744177 14.501716 4.381002 17.095846 -4.289014 0.507596 5.676686 0.000000 0.000000 0.000000 3.945230 -3.898564 11.432445 -1.828632 8.732133 -15.860650 -3.710783 4.221919 18.836296 13.549851 2.846198 1.947733 0.000000 0.000000 0.000000 3.110885 -0.663224 -2.584548 -1.872648 1.782544 -5.014122 0.198916 -2.405599 5.758012 0.008474 0.013209 -0.028764 -0.291208 -0.302801 8.669532 1.513272 -2.704397 14.792037 0.000000 0.000000 0.000000 1.056460 0.470529 5.767226 -17.733073 -11.656573 3.901514 -45.472285 14.230131 12.954037 0.102258 -39.695120 -0.534830 0.000000 0.000000 0.000000 -2.647887 1.459977 5.319667 25.171061 0.395653 1.824263 46.083758 -15.925235 14.897855 -1.179499 28.062037 -3.783722 0.000000 0.000000 0.000000 
5.304137 36.019878 -10.633824 179.975348 -0.966768 179.919204 -0.711788 -4.169218 11.217612 -4.679548 -7.629325 -14.662574 14.418919 4.330947 17.143338 -4.312718 0.395178 5.647603 0.000000 0.000000 0.000000 3.925759 -3.813760 11.284239 -1.743103 8.950203 -15.797340 -3.672162 4.532798 18.595183 13.396833 2.875386 2.153644 0.000000 0.000000 0.000000 3.137320 -0.644782 -2.782735 -1.856477 1.663825 -5.100156 0.217436 -2.443961 5.769856 0.027622 0.000669 -0.035722 -0.357689 -0.250926 8.753695 1.410425 -2.599586 14.879861 0.000000 0.000000 0.000000 0.972699 0.459863 5.762029 -17.746148 -11.516841 3.996644 -45.130417 13.846996 13.298747 0.174372 -39.551979 -0.681431 0.000000 0.000000 0.000000 -2.661103 1.614128 5.379278 25.244579 0.245514 1.731708 46.288971 -16.539330 14.033851 -1.200830 28.309980 -3.772173 0.000000 0.000000 0.000000 
